<svg xmlns="http://www.w3.org/2000/svg" version="1.1" xmlns:xlink="http://www.w3.org/1999/xlink" xmlns:svgjs="http://svgjs.dev/svgjs" width="61.35" height="54.09"><svg id="SvgjsSvg1005" data-name="Layer 1" xmlns="http://www.w3.org/2000/svg" viewBox="0 0 61.35 54.09"><defs><style>.cls-1{isolation:isolate;}.cls-2{fill:#fff;}.cls-3{fill:#ea1d2b;}.cls-4{fill:none;stroke:#ea1d2b;stroke-linecap:round;stroke-linejoin:round;stroke-width:7px;}</style></defs><g class="cls-1"><path class="cls-2" d="M97.48,63.76h12.45c8.74,0,13.11,0,16.25-2.06a12.37,12.37,0,0,0,3.43-3.37c2.1-3.09,2.1-7.38,2.1-16s0-12.87-2.1-16A12.37,12.37,0,0,0,126.18,23c-2-1.32-4.54-1.8-8.41-2a3.94,3.94,0,0,1-3.8-3.15,5.77,5.77,0,0,0-5.69-4.59H99.13a5.79,5.79,0,0,0-5.7,4.59,3.94,3.94,0,0,1-3.79,3.15c-3.87.16-6.4.64-8.41,2a12.4,12.4,0,0,0-3.44,3.37c-2.09,3.09-2.09,7.38-2.09,16s0,12.87,2.09,16a12.4,12.4,0,0,0,3.44,3.37C84.37,63.76,88.74,63.76,97.48,63.76Z" transform="translate(-72.3 -10.23)"></path><path class="cls-3" d="M97.48,63.41c3.38,0,8.13.11,11.46,0,5.41-.33,11.62.37,16.38-2.4,5-3.18,4.77-9,4.63-14.31-.08-3.78-.13-7.66-.32-11.37-.14-4.22-1-8.34-4.91-10.44-2.19-1.18-4.55-1.19-7.21-1.29a6.53,6.53,0,0,1-6.06-4.84,3.08,3.08,0,0,0-2.32-2.49,10.17,10.17,0,0,0-2.07-.05l-2.86.07c-1.49.07-3.93.06-5.39.18a2.53,2.53,0,0,0-2.11,2.08,7.32,7.32,0,0,1-7.24,6l-1.28.11c-6,.38-8.72,3.8-8.87,9.76-.27,3.57-.4,7.48-.7,11.25-.18,3.46-.75,7.32.16,10.54,2.63,7.66,12,6.84,18.71,7.16Zm0,.7c-4.79,0-9.76.71-14.59-.4-8.51-2.6-9.57-10.36-10.1-18-.28-3.87-.55-7.6-.47-11.66,0-10.66,6.64-16.73,17.26-16.51a.53.53,0,0,0,.59-.32,9.13,9.13,0,0,1,9.73-7l4.3.11,3.58.1a8.65,8.65,0,0,1,8.74,6.65,1.44,1.44,0,0,0,1.24,1.39c5.61.15,11.15,1.94,14.08,7.28,1.61,2.86,1.75,6.36,1.81,9.38,0,3.92-.11,7.69-.2,11.55-.18,6.27-.75,12.77-7.08,16-3.73,1.89-7.75,1.46-11.7,1.45-5.34-.17-11.85-.21-17.19-.12Z" transform="translate(-72.3 -10.23)"></path></g><path class="cls-4" d="M123.42,32h0Z" transform="translate(-72.3 -10.23)"></path><path class="cls-3" d="M103.82,31.62c8.68.49,13.51,9.2,7.58,16.34-5,5.87-15.76,4.33-18.72-3-3.2-8,3.53-14.09,11.14-13.36Zm0,.7c-4.12.24-5.69,4.58-4.91,8,.46,2.58,2,5.28,4.91,5.6a6.23,6.23,0,0,0,6.65-5.6c.63-3.85-2.22-8.45-6.65-8Z" transform="translate(-72.3 -10.23)"></path></svg><style>@media (prefers-color-scheme: light) { :root { filter: none; } }
@media (prefers-color-scheme: dark) { :root { filter: none; } }
</style></svg>